<svg width="975" height="198" viewBox="0 0 975 198" fill="none" xmlns="http://www.w3.org/2000/svg">
<path d="M75.125 117.625H28.25L28 88.875H66C72.8333 88.875 78.2917 88.125 82.375 86.625C86.4583 85.0417 89.4167 82.75 91.25 79.75C93.1667 76.75 94.125 73 94.125 68.5C94.125 63.3333 93.1667 59.1667 91.25 56C89.3333 52.8333 86.2917 50.5417 82.125 49.125C78.0417 47.625 72.75 46.875 66.25 46.875H44.75V195H0.875V13H66.25C77.5 13 87.5417 14.0417 96.375 16.125C105.208 18.125 112.708 21.2083 118.875 25.375C125.125 29.5417 129.875 34.7917 133.125 41.125C136.375 47.375 138 54.75 138 63.25C138 70.6667 136.417 77.625 133.25 84.125C130.083 90.625 124.792 95.9167 117.375 100C110.042 104 100 106.083 87.25 106.25L75.125 117.625ZM73.375 195H17.625L32.625 161.25H73.375C79.375 161.25 84.1667 160.333 87.75 158.5C91.4167 156.583 94.0417 154.083 95.625 151C97.2917 147.833 98.125 144.333 98.125 140.5C98.125 135.833 97.3333 131.792 95.75 128.375C94.25 124.958 91.8333 122.333 88.5 120.5C85.1667 118.583 80.7083 117.625 75.125 117.625H38.25L38.5 88.875H82.625L92.875 100.375C105.042 99.875 114.667 101.583 121.75 105.5C128.917 109.417 134.042 114.583 137.125 121C140.208 127.417 141.75 134.125 141.75 141.125C141.75 153.042 139.167 163 134 171C128.917 179 121.292 185 111.125 189C100.958 193 88.375 195 73.375 195ZM206.625 93.25V195H164.5V59.75H203.875L206.625 93.25ZM246.625 58.75L245.875 97.875C244.208 97.7083 241.958 97.5 239.125 97.25C236.292 97 233.917 96.875 232 96.875C227.083 96.875 222.833 97.4583 219.25 98.625C215.75 99.7083 212.833 101.375 210.5 103.625C208.25 105.792 206.583 108.542 205.5 111.875C204.5 115.208 204.042 119.083 204.125 123.5L196.5 118.5C196.5 109.417 197.375 101.167 199.125 93.75C200.958 86.25 203.542 79.7917 206.875 74.375C210.208 68.875 214.25 64.6667 219 61.75C223.75 58.75 229.083 57.25 235 57.25C237.083 57.25 239.125 57.375 241.125 57.625C243.208 57.875 245.042 58.25 246.625 58.75ZM305.625 59.75V195H263.375V59.75H305.625ZM260.875 24.875C260.875 18.875 263.042 13.9583 267.375 10.125C271.708 6.29167 277.333 4.375 284.25 4.375C291.167 4.375 296.792 6.29167 301.125 10.125C305.458 13.9583 307.625 18.875 307.625 24.875C307.625 30.875 305.458 35.7917 301.125 39.625C296.792 43.4583 291.167 45.375 284.25 45.375C277.333 45.375 271.708 43.4583 267.375 39.625C263.042 35.7917 260.875 30.875 260.875 24.875ZM397.125 197.5C386.125 197.5 376.292 195.792 367.625 192.375C358.958 188.875 351.625 184.083 345.625 178C339.708 171.917 335.167 164.917 332 157C328.917 149.083 327.375 140.708 327.375 131.875V127.125C327.375 117.208 328.75 108.042 331.5 99.625C334.25 91.125 338.333 83.7083 343.75 77.375C349.167 71.0417 355.958 66.125 364.125 62.625C372.292 59.0417 381.792 57.25 392.625 57.25C402.208 57.25 410.792 58.7917 418.375 61.875C425.958 64.9583 432.375 69.375 437.625 75.125C442.958 80.875 447 87.8333 449.75 96C452.583 104.167 454 113.333 454 123.5V140.625H343.5V114.25H412.875V111C412.958 106.5 412.167 102.667 410.5 99.5C408.917 96.3333 406.583 93.9167 403.5 92.25C400.417 90.5833 396.667 89.75 392.25 89.75C387.667 89.75 383.875 90.75 380.875 92.75C377.958 94.75 375.667 97.5 374 101C372.417 104.417 371.292 108.375 370.625 112.875C369.958 117.375 369.625 122.125 369.625 127.125V131.875C369.625 136.875 370.292 141.417 371.625 145.5C373.042 149.583 375.042 153.083 377.625 156C380.292 158.833 383.458 161.042 387.125 162.625C390.875 164.208 395.125 165 399.875 165C405.625 165 411.292 163.917 416.875 161.75C422.458 159.583 427.25 156 431.25 151L450.375 173.75C447.625 177.667 443.708 181.458 438.625 185.125C433.625 188.792 427.625 191.792 420.625 194.125C413.625 196.375 405.792 197.5 397.125 197.5ZM522.75 195H480.375V48.75C480.375 38.25 482.5 29.4167 486.75 22.25C491 15.0833 497 9.66667 504.75 6C512.5 2.25 521.667 0.375 532.25 0.375C535.917 0.375 539.375 0.625 542.625 1.125C545.875 1.625 549.042 2.25 552.125 3L552.25 34C550.75 33.5833 549.208 33.2917 547.625 33.125C546.042 32.9583 544.083 32.875 541.75 32.875C537.667 32.875 534.208 33.5 531.375 34.75C528.542 35.9167 526.375 37.7083 524.875 40.125C523.458 42.4583 522.75 45.3333 522.75 48.75V195ZM549 59.75V89H460.875V59.75H549ZM587.875 13H623.625L664.25 139.625L704.875 13H740.625L678.75 195H649.75L587.875 13ZM566.125 13H603.125L610 152.5V195H566.125V13ZM725.375 13H762.5V195H718.5V152.5L725.375 13ZM854.125 197.5C843.125 197.5 833.292 195.792 824.625 192.375C815.958 188.875 808.625 184.083 802.625 178C796.708 171.917 792.167 164.917 789 157C785.917 149.083 784.375 140.708 784.375 131.875V127.125C784.375 117.208 785.75 108.042 788.5 99.625C791.25 91.125 795.333 83.7083 800.75 77.375C806.167 71.0417 812.958 66.125 821.125 62.625C829.292 59.0417 838.792 57.25 849.625 57.25C859.208 57.25 867.792 58.7917 875.375 61.875C882.958 64.9583 889.375 69.375 894.625 75.125C899.958 80.875 904 87.8333 906.75 96C909.583 104.167 911 113.333 911 123.5V140.625H800.5V114.25H869.875V111C869.958 106.5 869.167 102.667 867.5 99.5C865.917 96.3333 863.583 93.9167 860.5 92.25C857.417 90.5833 853.667 89.75 849.25 89.75C844.667 89.75 840.875 90.75 837.875 92.75C834.958 94.75 832.667 97.5 831 101C829.417 104.417 828.292 108.375 827.625 112.875C826.958 117.375 826.625 122.125 826.625 127.125V131.875C826.625 136.875 827.292 141.417 828.625 145.5C830.042 149.583 832.042 153.083 834.625 156C837.292 158.833 840.458 161.042 844.125 162.625C847.875 164.208 852.125 165 856.875 165C862.625 165 868.292 163.917 873.875 161.75C879.458 159.583 884.25 156 888.25 151L907.375 173.75C904.625 177.667 900.708 181.458 895.625 185.125C890.625 188.792 884.625 191.792 877.625 194.125C870.625 196.375 862.792 197.5 854.125 197.5Z" fill="url(#paint0_linear_2_99)"/>
<path d="M931.375 176.5C931.375 170.833 933.375 166.083 937.375 162.25C941.458 158.417 946.75 156.5 953.25 156.5C959.833 156.5 965.083 158.417 969 162.25C973 166.083 975 170.833 975 176.5C975 182.083 973 186.792 969 190.625C965.083 194.458 959.833 196.375 953.25 196.375C946.75 196.375 941.458 194.458 937.375 190.625C933.375 186.792 931.375 182.083 931.375 176.5Z" fill="#374151" fill-opacity="0.25"/>
<defs>
<linearGradient id="paint0_linear_2_99" x1="-13" y1="107" x2="993" y2="107" gradientUnits="userSpaceOnUse">
<stop stop-color="#374151" stop-opacity="0.125"/>
<stop offset="1" stop-color="#374151" stop-opacity="0.25"/>
</linearGradient>
</defs>
</svg>
